# xmcd
#
# Track frame offsets:
#        150
#        15163
#        36902
#        62569
#        84696
#        105705
#        121515
#        142439
#        160494
#        181867
#
# Disc length: 2669 seconds
#
# Revision: 0
# Processed by: cddbd v1.5.1PL0 Copyright (c) Steve Scherf et al.
# Submitted via: ExactAudioCopy v0.95a5
#
DISCID=7e0a6b0a
DTITLE=Nobuyasu Sakonda - Clockwork Hermes
DYEAR=2000
DGENRE=Avantgarde
TTITLE0=Mechanization
TTITLE1=Armenian Orange Room
TTITLE2=New Century Song
TTITLE3=Clockwork Idealism
TTITLE4=Inside Rose
TTITLE5=Sanctus
TTITLE6=Papers
TTITLE7=Yellow Moth Vermilion Silk
TTITLE8=Sheep Negotiation
TTITLE9=Garnet
EXTD=
EXTT0=
EXTT1=
EXTT2=
EXTT3=
EXTT4=
EXTT5=
EXTT6=
EXTT7=
EXTT8=
EXTT9=
PLAYORDER=
